# xmcd
#
# Track frame offsets:
#	150
#	16130
#	30840
#	43697
#	60677
#	76310
#	89255
#	105640
#	127490
#	143930
#
# Disc length: 2196 seconds
#
# Revision: 0
# Processed by: cddbd v1.5.2PL0 Copyright (c) Steve Scherf et al.
# Submitted via: EasyCDDAExtractor 11.9.9.666
#
DISCID=7e08920a
DTITLE=Kevin Banford - Between Heaven and L.A.
DYEAR=2005
DGENRE=Honky Tonk
TTITLE0=The Last Man in Texas
TTITLE1=Out There on the Dance Floor
TTITLE2=Double or Nothing
TTITLE3=High Time for the Coming of Hank
TTITLE4=The Stars of Old Mexico
TTITLE5=You've Been a Phone Call Away For Too Long
TTITLE6=Where Were You When I Was Single?
TTITLE7=Another Cowboy's Comin' Down With the Blues
TTITLE8=Between Heaven and L.A.
TTITLE9=A Constant State of Heart
EXTD=
EXTT0=
EXTT1=
EXTT2=
EXTT3=
EXTT4=
EXTT5=
EXTT6=
EXTT7=
EXTT8=
EXTT9=
PLAYORDER=
